Coordinates
version=1
nRows=9
nColumns=36
inDegrees=yes

Units are S.I. units (second, meters, Newtons, ...)
If the header above contains a line with 'inDegrees', this indicates whether rotational values are in degrees (yes) or radians (no).

endheader
time	pelvis_tilt	pelvis_list	pelvis_rotation	pelvis_tx	pelvis_ty	pelvis_tz	hip_flexion_r	hip_adduction_r	hip_rotation_r	knee_angle_r	knee_angle_r_beta	ankle_angle_r	subtalar_angle_r	mtp_angle_r	hip_flexion_l	hip_adduction_l	hip_rotation_l	knee_angle_l	knee_angle_l_beta	ankle_angle_l	subtalar_angle_l	mtp_angle_l	lumbar_extension	lumbar_bending	lumbar_rotation	arm_flex_r	arm_add_r	arm_rot_r	elbow_flex_r	pro_sup_r	arm_flex_l	arm_add_l	arm_rot_l	elbow_flex_l	pro_sup_l
      1.98333330	      3.11779196	      7.06865613	      1.32192538	      0.45996511	      0.80749490	      0.18709088	     28.55962979	      6.05029435	      8.12969133	     63.78644673	      1.11328351	     27.46642215	    -22.39410549	     -7.49999984	     35.97635493	     -1.24159236	     -6.12810963	      1.81370498	      0.03165512	     -6.99729602	    -12.70904785	     -7.49999984	    -23.72811369	     -5.21171890	     -2.58416499	     41.35930196	      8.98129412	     61.48517404	    126.49008185	     99.48417637	     39.82011245	      7.98549382	     73.69346224	    128.20397351	     88.90178723
      2.00000000	      2.92714642	      6.70320803	      1.43795957	      0.46382230	      0.80448774	      0.18577341	     28.91553441	      6.42824070	      7.96148824	     64.11826313	      1.11907480	     27.92283289	    -22.54727546	     -7.49999984	     36.03624997	     -1.51517371	     -6.31855618	      1.54032831	      0.02688380	     -7.43011669	    -12.23595156	     -7.49999984	    -23.93736636	     -4.92812696	     -2.56191534	     41.31390510	      8.88222279	     61.59739151	    126.76280476	     99.51574962	     39.74679216	      8.04966246	     73.77591803	    128.41927968	     88.93610933
      2.01666670	      2.60242126	      6.35913977	      1.37122685	      0.46062513	      0.80044994	      0.18671669	     29.39001723	      6.89684155	      7.81126003	     64.32590018	      1.12269875	     28.14544820	    -22.40361525	     -7.49999984	     36.32090925	     -1.82626964	     -6.82658658	      1.30776704	      0.02282484	     -8.13706657	    -11.35752393	     -7.49999984	    -24.00246520	     -4.73554814	     -2.40502444	     41.46733904	      8.80329299	     61.78731192	    127.39272156	     99.56732391	     39.79671523	      8.10120580	     73.79320286	    128.74850173	     89.01221135
      2.03333330	      2.66494587	      6.27116226	      1.32945972	      0.46108313	      0.80029098	      0.18699858	     29.40594458	      7.17799271	      7.84856600	     64.62282702	      1.12788110	     28.34813176	    -22.72102908	     -7.49999986	     36.04273889	     -1.94640494	     -7.58331052	      1.13758646	      0.01985463	     -8.86623380	    -10.65609491	     -7.49999986	    -24.47765988	     -4.84895367	     -2.45620738	     41.71498153	      8.93188682	     62.73416035	    127.74567663	     91.90160137	     40.42790602	      8.12332513	     73.96699977	    128.75186431	     82.18231134
      2.05000000	      2.54101879	      6.08652715	      1.42122744	      0.46563491	      0.79795356	      0.18969860	     29.20962506	      7.68554546	      7.68066235	     64.62528259	      1.12792396	     28.76361474	    -23.01813299	     -7.49999986	     35.96991293	     -2.20685957	     -7.46165142	      0.96421556	      0.01682874	     -9.23927506	    -10.24027800	     -7.49999986	    -24.57464201	     -4.84299605	     -2.56699631	     41.53891945	      9.07610406	     62.74276545	    127.84100647	     92.09603872	     40.65021232	      8.03403109	     73.63408690	    128.50948938	     82.32113979
      2.06666670	      2.43838021	      6.05891614	      1.66068552	      0.46513304	      0.79570154	      0.18922630	     29.34093015	      7.81571334	      7.48071871	     64.79718566	      1.13092424	     28.43747213	    -24.17864192	     -7.49999986	     35.83226052	     -2.17381996	     -7.83814758	      0.74987141	      0.01308773	     -9.63269220	     -9.85961351	     -7.49999986	    -24.88160508	     -4.85140754	     -2.65616149	     41.22473654	      9.22123342	     62.60524697	    128.06446558	    100.09490664	     40.66101710	      8.00289424	     72.58312202	    127.97099436	     88.90394580
      2.08333330	      2.48764242	      6.21851258	      2.00430962	      0.46467311	      0.79107262	      0.18856038	     29.69644086	      7.68718212	      7.39964054	     65.74351287	      1.14744076	     28.55624078	    -24.42936763	     -7.49999986	     35.70664679	     -1.87377714	     -8.15318133	      0.68531243	      0.01196096	    -10.13766920	     -9.79843992	     -7.49999986	    -25.19002996	     -5.04335198	     -3.09874758	     41.25552779	      9.30984528	     62.79224398	    128.05308331	    100.11545246	     41.18901333	      8.11990565	     71.97213494	    127.54660150	     88.86755799
      2.10000000	      2.60012114	      6.33177258	      2.07624176	      0.46429767	      0.79144899	      0.18846187	     30.07002647	      7.75273215	      7.40404552	     66.64387411	      1.16315503	     28.42446843	    -25.13366943	     -7.49999987	     35.49138862	     -1.60894052	     -8.44535732	      0.62548159	      0.01091671	    -10.51659657	     -9.81772522	     -7.49999987	    -25.53658611	     -5.16366390	     -3.40368565	     41.56409409	      9.44829023	     63.03014113	    127.73677322	    100.30909003	     41.30837863	      8.21288445	     71.13615928	    127.16963116	     88.34015725
      2.11666670	      2.84960208	      6.24611039	      2.17589572	      0.46415888	      0.78850181	      0.18747317	     30.25815051	      7.86940961	      7.33632804	     67.38780132	      1.17613901	     28.27264652	    -25.99780040	     -7.49999987	     35.23354887	     -1.47124025	     -8.94299985	      0.60379640	      0.01053824	    -10.25970511	     -9.39570894	     -7.49999987	    -25.96623906	     -4.98433297	     -3.63417768	     42.21479591	      9.61962013	     63.10089562	    127.26749812	     99.99747931	     41.49294142	      8.45003631	     70.67748570	    127.11928083	     88.26309401
